<svg xmlns="http://www.w3.org/2000/svg"  viewBox="0 0 100 100" width="100px" height="100px"><path d="M 61.734375 15.818359 L 19.447266 17.617188 C 17.863854 17.684828 16.659232 18.764132 16.238281 20.050781 C 16.062272 20.58876 16.028081 21.177361 16.126953 21.753906 A 1.0001 1.0001 0 0 0 16 22.238281 L 16 67.40625 C 16 68.073172 16.212321 68.722855 16.605469 69.259766 A 1.0001 1.0001 0 0 0 16.607422 69.259766 L 26 82.068359 C 26.044551 82.129051 26.096815 82.180363 26.146484 82.234375 L 27.904297 84.640625 A 1.0001 1.0001 0 0 0 28.748047 85.048828 L 31.730469 84.943359 C 31.855952 84.949629 31.977579 84.972005 32.105469 84.966797 L 77.972656 83.095703 C 80.212965 83.004262 82 81.14116 82 78.898438 L 82 45.537109 L 82 33.037109 L 82 29.5625 A 1.0001 1.0001 0 0 0 81.578125 28.746094 L 66.320312 17.962891 A 1.0001 1.0001 0 0 0 66.140625 17.859375 L 64.335938 16.583984 L 64.333984 16.583984 C 63.576254 16.048711 62.661332 15.779026 61.734375 15.818359 z M 61.820312 17.816406 C 62.306716 17.795766 62.783724 17.936809 63.179688 18.216797 A 1.0001 1.0001 0 0 0 63.181641 18.21875 L 77.859375 28.580078 A 1.0001 1.0001 0 0 0 77.861328 28.580078 C 77.931698 28.629728 77.896966 28.611004 77.884766 28.652344 C 77.872566 28.693674 77.910719 28.697682 77.824219 28.701172 L 29.488281 30.671875 C 29.214395 30.683065 28.948166 30.597025 28.734375 30.425781 L 21.980469 25.021484 L 18.408203 22.097656 C 18.044073 21.665031 17.980338 21.155826 18.138672 20.671875 C 18.327972 20.093274 18.775615 19.647596 19.533203 19.615234 L 61.820312 17.816406 z M 61.568359 20.597656 L 60.363281 20.648438 C 60.087281 20.660438 59.872766 20.892922 59.884766 21.169922 C 59.896766 21.446922 60.14325 21.662437 60.40625 21.648438 L 61.445312 21.603516 L 66.798828 25.380859 L 51.472656 26.005859 C 51.196656 26.017859 50.983141 26.251344 50.994141 26.527344 C 51.005141 26.795344 51.225187 27.005859 51.492188 27.005859 C 51.499187 27.005859 51.506719 27.006812 51.511719 27.007812 L 68.306641 26.320312 C 68.520641 26.312313 68.705625 26.167891 68.765625 25.962891 C 68.825625 25.757891 68.749219 25.535109 68.574219 25.412109 L 61.886719 20.691406 C 61.839719 20.657406 61.786469 20.632234 61.730469 20.615234 L 61.728516 20.615234 C 61.675516 20.600234 61.620359 20.594656 61.568359 20.597656 z M 57.367188 20.775391 L 32.388672 21.837891 C 32.112672 21.848891 31.898156 22.083375 31.910156 22.359375 C 31.921156 22.628375 32.144156 22.837891 32.410156 22.837891 L 32.431641 22.837891 L 57.410156 21.775391 C 57.686156 21.764391 57.900672 21.529906 57.888672 21.253906 C 57.877672 20.976906 57.647188 20.787391 57.367188 20.775391 z M 27.392578 22.050781 L 24.265625 22.183594 C 24.057625 22.193594 23.874547 22.331297 23.810547 22.529297 C 23.745547 22.727297 23.811609 22.943219 23.974609 23.074219 L 29.839844 27.767578 C 29.928844 27.838578 30.039344 27.876953 30.152344 27.876953 L 30.173828 27.876953 L 39.523438 27.494141 C 39.799437 27.482141 40.012953 27.248656 40.001953 26.972656 C 39.990953 26.697656 39.742422 26.500141 39.482422 26.494141 L 30.318359 26.869141 L 25.640625 23.126953 L 27.433594 23.050781 C 27.709594 23.039781 27.924109 22.805297 27.912109 22.529297 C 27.900109 22.252297 27.657578 22.062781 27.392578 22.050781 z M 18 24.398438 L 20.814453 26.650391 L 27.318359 31.972656 C 27.581598 32.188033 27.732422 32.508568 27.732422 32.849609 L 27.732422 34.910156 L 27.732422 80.771484 L 27.732422 80.845703 C 27.732422 80.935403 27.72932 80.896466 27.6875 80.910156 C 27.673883 80.914613 27.669656 80.918319 27.664062 80.921875 L 23.869141 75.728516 A 1.0001 1.0001 0 0 0 23.693359 75.541016 L 18.220703 68.078125 C 18.077851 67.883036 18 67.647328 18 67.40625 L 18 24.398438 z M 48.474609 26.128906 L 46.476562 26.208984 C 46.200562 26.220984 45.987047 26.454469 45.998047 26.730469 C 46.009047 26.998469 46.229094 27.208984 46.496094 27.208984 L 46.517578 27.208984 L 48.515625 27.128906 C 48.791625 27.116906 49.005141 26.883422 48.994141 26.607422 C 48.983141 26.331422 48.765609 26.109906 48.474609 26.128906 z M 21.244141 30.740234 C 21.176141 30.744234 21.111734 30.762062 21.052734 30.789062 C 20.992734 30.818062 20.936625 30.858109 20.890625 30.912109 C 20.834625 30.976109 20.793391 31.053625 20.775391 31.140625 L 20.775391 31.142578 C 20.775391 31.142578 20.775391 31.144531 20.775391 31.144531 C 20.769391 31.177531 20.767578 31.211141 20.767578 31.244141 L 20.767578 38.466797 C 20.767578 38.742797 20.991578 38.966797 21.267578 38.966797 C 21.543578 38.966797 21.767578 38.742797 21.767578 38.466797 L 21.767578 32.296875 L 23.966797 34.097656 L 23.966797 69.589844 C 23.950797 69.538844 23.926578 69.488406 23.892578 69.441406 L 22.708984 67.828125 C 22.544984 67.605125 22.231766 67.557656 22.009766 67.722656 C 21.786766 67.885656 21.739344 68.198875 21.902344 68.421875 L 23.085938 70.033203 C 23.183938 70.167203 23.334281 70.238281 23.488281 70.238281 C 23.591281 70.238281 23.69425 70.207578 23.78125 70.142578 C 23.88725 70.065578 23.953563 69.953937 23.976562 69.835938 C 24.027563 70.058938 24.226844 70.224609 24.464844 70.224609 C 24.740844 70.224609 24.964844 70.000609 24.964844 69.724609 L 24.964844 33.859375 C 24.964844 33.708375 24.89725 33.567656 24.78125 33.472656 L 21.583984 30.857422 C 21.559984 30.836422 21.533859 30.818734 21.505859 30.802734 C 21.505859 30.802734 21.503906 30.802734 21.503906 30.802734 C 21.503906 30.802734 21.503906 30.800781 21.503906 30.800781 C 21.422906 30.756781 21.327141 30.739234 21.244141 30.740234 z M 77.710938 30.839844 C 78.971997 30.787763 80 31.772993 80 33.037109 L 80 45.537109 L 80 78.898438 C 80 80.089714 79.080316 81.049097 77.890625 81.097656 L 37.566406 82.742188 A 1.0006178 1.0006178 0 0 0 37.449219 82.738281 L 31.626953 82.945312 C 30.553223 82.799973 29.732422 81.898519 29.732422 80.771484 L 29.732422 34.910156 C 29.732422 33.719268 30.654043 32.76145 31.84375 32.712891 L 77.710938 30.839844 z M 75.667969 34.759766 C 75.391969 34.759766 75.167969 34.983766 75.167969 35.259766 L 75.167969 75.259766 C 75.167969 75.535766 75.391969 75.759766 75.667969 75.759766 C 75.943969 75.759766 76.167969 75.535766 76.167969 75.259766 L 76.167969 35.259766 C 76.167969 34.983766 75.943969 34.759766 75.667969 34.759766 z M 64.402344 35.212891 L 44.419922 36.021484 C 44.144922 36.033484 43.930406 36.266969 43.941406 36.542969 C 43.952406 36.810969 44.172453 37.021484 44.439453 37.021484 L 44.460938 37.021484 L 64.443359 36.212891 C 64.718359 36.200891 64.934828 35.967406 64.923828 35.691406 C 64.911828 35.416406 64.662344 35.209891 64.402344 35.212891 z M 41.421875 36.144531 L 39.423828 36.224609 C 39.147828 36.236609 38.934312 36.470094 38.945312 36.746094 C 38.956312 37.014094 39.176359 37.224609 39.443359 37.224609 L 39.464844 37.224609 L 41.462891 37.144531 C 41.738891 37.132531 41.952406 36.899047 41.941406 36.623047 C 41.930406 36.348047 41.713875 36.149531 41.421875 36.144531 z M 36.427734 36.345703 L 33.646484 36.457031 C 33.378484 36.468031 33.167969 36.688031 33.167969 36.957031 L 33.167969 74.175781 C 33.167969 74.451781 33.391969 74.675781 33.667969 74.675781 C 33.943969 74.675781 34.166969 74.451781 34.167969 74.175781 L 34.167969 37.439453 L 36.46875 37.345703 C 36.74375 37.333703 36.958266 37.100219 36.947266 36.824219 C 36.935266 36.549219 36.695734 36.343703 36.427734 36.345703 z M 72.443359 38.804688 L 63.375 39.248047 C 61.620692 39.333827 60.232422 40.792067 60.232422 42.548828 A 0.50005 0.50005 0 0 0 60.662109 43.042969 L 63.998047 43.523438 L 63.998047 59.904297 L 51.28125 40.080078 A 0.50005 0.50005 0 0 0 50.835938 39.851562 L 50.310547 39.876953 A 0.50005 0.50005 0 0 0 50.119141 39.851562 L 47.916016 39.996094 L 40.994141 40.337891 A 0.50005 0.50005 0 0 0 40.666016 40.484375 C 38.885846 40.642378 37.498047 42.131353 37.498047 43.927734 L 37.498047 44.345703 A 0.50005 0.50005 0 0 0 38.03125 44.845703 L 41.033203 44.648438 L 41.033203 70.677734 L 39.833984 70.921875 L 39.908203 70.912109 C 38.143186 71.000129 36.748047 72.465849 36.748047 74.232422 L 36.748047 74.371094 A 0.50005 0.50005 0 0 0 37.273438 74.871094 L 48.423828 74.318359 C 50.266097 74.227469 51.722656 72.696091 51.722656 70.851562 A 0.50005 0.50005 0 0 0 51.318359 70.361328 L 47.033203 69.525391 L 47.033203 51.318359 L 57.890625 68.544922 L 59.613281 71.650391 C 61.00027 74.151141 64.072075 75.188583 66.691406 74.042969 L 69.466797 72.830078 A 0.50005 0.50005 0 0 0 69.726562 72.5625 A 0.50005 0.50005 0 0 0 70 72.117188 L 70 42.580078 C 70.673036 42.520868 71.350239 42.475417 71.892578 42.095703 C 72.570896 41.620785 72.966797 40.758712 72.966797 39.521484 L 72.966797 39.304688 A 0.50005 0.50005 0 0 0 72.443359 38.804688 z M 71.919922 39.830078 C 71.862812 40.605235 71.658518 41.040553 71.320312 41.277344 C 70.930631 41.550176 70.28095 41.660903 69.474609 41.701172 A 0.50005 0.50005 0 0 0 69 42.201172 L 69 71.65625 A 0.50005 0.50005 0 0 0 68.708984 72.269531 L 68.652344 72.09375 L 66.291016 73.126953 C 64.136347 74.069339 61.627339 73.221313 60.486328 71.164062 L 58.757812 68.046875 A 0.50005 0.50005 0 0 0 58.744141 68.023438 L 46.955078 49.320312 A 0.50005 0.50005 0 0 0 46.033203 49.587891 L 46.033203 70.068359 A 0.50005 0.50005 0 0 0 46.632812 70.558594 L 46.863281 70.511719 L 50.570312 71.234375 C 50.373649 72.350688 49.546558 73.26056 48.375 73.318359 L 37.90625 73.837891 C 38.105799 72.806216 38.868992 71.966464 39.958984 71.912109 A 0.50005 0.50005 0 0 0 40.033203 71.902344 L 41.634766 71.576172 A 0.50005 0.50005 0 0 0 42.033203 71.085938 L 42.033203 44.115234 A 0.50005 0.50005 0 0 0 41.501953 43.615234 L 38.544922 43.810547 C 38.611442 42.566028 39.549021 41.545067 40.806641 41.462891 L 41.117188 41.443359 A 0.50005 0.50005 0 0 0 41.416016 41.320312 L 47.970703 40.994141 A 0.50005 0.50005 0 0 0 47.978516 40.994141 L 50 40.861328 A 0.50005 0.50005 0 0 0 50.175781 40.884766 L 50.595703 40.865234 L 64.078125 61.882812 A 0.50005 0.50005 0 0 0 64.998047 61.611328 L 64.998047 43.0625 A 0.50005 0.50005 0 0 0 64.414062 42.568359 L 64.398438 42.572266 L 61.396484 42.138672 C 61.602041 41.125587 62.350887 40.300508 63.423828 40.248047 L 71.919922 39.830078 z M 21.267578 42.966797 C 20.991578 42.966797 20.767578 43.190797 20.767578 43.466797 L 20.767578 63.466797 C 20.767578 63.742797 20.991578 63.966797 21.267578 63.966797 C 21.543578 63.966797 21.767578 63.742797 21.767578 63.466797 L 21.767578 43.466797 C 21.767578 43.190797 21.543578 42.966797 21.267578 42.966797 z M 74.240234 76.408203 L 72.240234 76.488281 C 71.964234 76.500281 71.750719 76.733766 71.761719 77.009766 C 71.772719 77.277766 71.994719 77.488281 72.261719 77.488281 L 72.28125 77.488281 L 74.28125 77.408203 C 74.55725 77.396203 74.770766 77.162719 74.759766 76.886719 C 74.747766 76.611719 74.509234 76.383203 74.240234 76.408203 z M 69.242188 76.609375 L 49.259766 77.417969 C 48.984766 77.429969 48.768297 77.663453 48.779297 77.939453 C 48.790297 78.207453 49.012297 78.417969 49.279297 78.417969 L 49.300781 78.417969 L 69.283203 77.609375 C 69.558203 77.597375 69.774672 77.365844 69.763672 77.089844 C 69.751672 76.814844 69.506187 76.616375 69.242188 76.609375 z"/></svg>